<svg xmlns="http://www.w3.org/2000/svg" width="36" height="36">
  <path d="M24.577 35.414l-.14.033c-1.577.365-3.374.553-5.51.553H17.08c-4.107 0-6.962-.696-9.406-2.003-2.445-1.308-4.363-3.226-5.67-5.67C.695 25.881 0 23.026 0 18.92l.001-.896c17.547.302 23.139 3.56 24.576 17.39zm9.427-7.088c-1.307 2.445-3.226 4.363-5.67 5.67-.89.477-1.835.872-2.875 1.181.974-8.991 3.754-13.454 10.54-15.536-.077 3.726-.766 6.387-1.995 8.685zM18.928 0c2.2 0 4.04.2 5.65.586-1.439 13.83-7.03 17.088-24.577 17.39L0 17.08c0-4.107.696-6.962 2.003-9.406 1.308-2.445 3.226-4.363 5.67-5.67C10.119.695 12.974 0 17.08 0h1.848zm9.406 2.003c2.444 1.308 4.363 3.226 5.67 5.67 1.23 2.299 1.918 4.96 1.996 8.683-6.787-2.08-9.567-6.542-10.541-15.531 1.04.307 1.985.702 2.875 1.178z" fill="#FFF" fill-rule="evenodd"/>
</svg>
